<svg width="35" height="35" viewBox="0 0 35 35" fill="none" xmlns="http://www.w3.org/2000/svg">
<circle cx="17.5" cy="17.5" r="17.5" fill="#FF8C00"/>
<g clip-path="url(#clip0_39_16)">
<path d="M24.5753 17.8022L19.1574 23.3C19.0469 23.4122 18.8964 23.4759 18.7389 23.477C18.5814 23.4782 18.4299 23.4167 18.3178 23.3062C18.2056 23.1957 18.142 23.0451 18.1408 22.8876C18.1396 22.7302 18.2011 22.5787 18.3116 22.4665L22.7235 17.9895L10.722 18.078C10.5645 18.0791 10.4129 18.0177 10.3007 17.9071C10.1885 17.7965 10.1248 17.6458 10.1236 17.4883C10.1225 17.3307 10.184 17.1792 10.2945 17.0669C10.4051 16.9547 10.5558 16.891 10.7133 16.8898L22.7148 16.8024L18.2378 12.3905C18.1256 12.28 18.0619 12.1294 18.0608 11.972C18.0596 11.8145 18.1211 11.663 18.2316 11.5509C18.3421 11.4387 18.4927 11.375 18.6502 11.3739C18.8076 11.3727 18.9591 11.4342 19.0713 11.5447L24.5691 16.9625C24.6813 17.0731 24.7449 17.2236 24.7461 17.3811C24.7472 17.5386 24.6858 17.69 24.5753 17.8022Z" fill="#2C3E50"/>
</g>
<defs>
<clipPath id="clip0_39_16">
<rect width="19" height="19" fill="white" transform="translate(17.3364 4) rotate(44.58)"/>
</clipPath>
</defs>
</svg>
